<svg width="97" height="50" viewBox="0 0 97 50" fill="none" xmlns="http://www.w3.org/2000/svg">
<g id="Group 5">
<path id="Vector" d="M0.729614 45.543H3.92007V32.9474L8.85844 43.9267C9.43983 45.2579 10.2363 45.725 11.8022 45.725C13.3681 45.725 14.1323 45.2579 14.7136 43.9267L19.652 32.9474V45.5422H22.8425V32.9684C22.8425 31.7402 22.3521 31.1468 21.3382 30.8414C18.9142 30.0863 17.2896 30.7384 16.5526 32.375L11.7082 43.2129L7.01652 32.375C6.31179 30.7384 4.65489 30.0863 2.23384 30.8414C1.21999 31.1468 0.729614 31.7402 0.729614 32.9684L0.729614 45.543ZM25.4967 35.2894H28.6841V42.2292C28.6548 42.6052 28.8045 43.4897 30.5524 43.519H37.4891V35.2541H40.6856C40.7006 35.2541 40.6796 46.5237 40.6796 46.5711C40.6969 49.3502 37.2334 49.9526 35.6351 50H25.5644V47.855L35.6532 47.852C37.7065 47.6376 37.4628 46.6147 37.4628 46.274V45.4369H30.6847C27.5296 45.4076 25.523 44.0297 25.4967 42.4458C25.4937 42.3021 25.5644 35.3601 25.4967 35.2894Z" fill="#00618A"/>
<path id="Vector_2" d="M43.142 45.543H52.314C53.3865 45.543 54.4297 45.3166 55.2578 44.9293C56.6387 44.2975 57.311 43.4371 57.311 42.3119V39.9819C57.311 39.062 56.5469 38.2016 55.0427 37.6315C54.2462 37.3231 53.2624 37.1614 52.3133 37.1614H48.4466C47.1598 37.1614 46.5461 36.7733 46.3934 35.9159C46.364 35.8129 46.364 35.7309 46.364 35.6279V34.1763C46.364 34.0943 46.364 34.0116 46.3934 33.9093C46.5461 33.2572 46.8838 33.0722 48.0179 32.9692L48.3263 32.9489H57.4336V30.8249H48.4797C47.1929 30.8249 46.5175 30.9069 45.903 31.0896C44.0024 31.6831 43.1736 32.6232 43.1736 34.2598V36.1198C43.1736 37.5503 44.7982 38.7785 47.5276 39.0635L48.4474 39.1049H51.7612C51.8846 39.1049 52.0049 39.1049 52.0989 39.1252C53.1097 39.2072 53.5384 39.3922 53.8468 39.76C54.0055 39.9066 54.0965 40.1157 54.0905 40.3301V42.1931C54.0905 42.4164 53.9378 42.7045 53.6325 42.9482C53.3564 43.1949 52.8954 43.3566 52.2839 43.398L51.9462 43.4183H43.142V45.543ZM77.2104 41.8411C77.2104 44.0297 78.838 45.2549 82.1165 45.5016L83.0393 45.543H91.3509V43.416H82.9776C81.1064 43.416 80.4009 42.9459 80.4009 41.8208V30.8204H77.2134V41.8403L77.2104 41.8411ZM59.3478 41.9524V34.3696C59.3478 32.4449 60.7023 31.2762 63.3753 30.9084C63.6605 30.8672 63.9483 30.8466 64.2365 30.8467H70.2887C70.5971 30.8467 70.8731 30.867 71.1822 30.9084C73.856 31.2754 75.2076 32.4449 75.2076 34.3696V41.9524C75.2076 43.5153 74.6344 44.3501 73.31 44.8962L76.4538 47.7316H72.7489L70.2075 45.4369L67.6488 45.5986H64.238C63.6041 45.5964 62.9735 45.5073 62.3637 45.3339C60.3338 44.7818 59.3493 43.7153 59.3493 41.9524H59.3478ZM62.7909 41.7674C62.7909 41.8704 62.8203 41.9727 62.8526 42.0968C63.0376 42.9783 63.8665 43.4687 65.1262 43.4687H68.0234L65.3617 41.0657H69.0666L71.3876 43.1633C71.8163 42.9339 72.0953 42.5872 72.1953 42.1382C72.2247 42.0351 72.2247 41.9328 72.2247 41.8298V34.5584C72.2247 34.4764 72.2247 34.3734 72.1953 34.2703C72.0103 33.4505 71.1815 32.9804 69.951 32.9804H65.127C63.7138 32.9804 62.7917 33.5942 62.7917 34.5584L62.7909 41.7674Z" fill="#E48E00"/>
<path id="Vector_3" d="M94.1563 27.2922C92.197 27.2396 90.6981 27.4216 89.4172 27.9623C89.0532 28.115 88.4711 28.118 88.4124 28.5738C88.6125 28.7852 88.6448 29.0995 88.8035 29.3553C89.1088 29.8516 89.6263 30.5128 90.0873 30.8595L91.6472 31.9756C92.6047 32.56 93.6772 32.8954 94.603 33.4798C95.1468 33.8266 95.6868 34.2613 96.2186 34.6524C96.4803 34.8434 96.6563 35.1458 97 35.2661V35.2104C96.821 34.981 96.7736 34.6667 96.6089 34.429L95.8831 33.7032C95.1754 32.7631 94.2759 31.9373 93.3184 31.2498C92.5543 30.703 90.8507 29.963 90.5303 29.0755L90.4747 29.0198C91.0154 28.9611 91.6502 28.7641 92.1466 28.6317C92.9867 28.4053 93.7358 28.464 94.6 28.2406L95.7726 27.9029V27.6826C95.3348 27.2328 95.0235 26.6394 94.5444 26.231C93.2989 25.1705 91.9353 24.107 90.5311 23.2195C89.7527 22.7291 88.7922 22.4118 87.9664 21.9943C87.6904 21.8537 87.2022 21.783 87.0172 21.5476C86.5855 20.9955 86.3501 20.2961 86.0154 19.6523L84.0088 15.4156C83.5861 14.4491 83.3093 13.494 82.7806 12.6275C80.2512 8.46458 77.5248 5.95253 73.3024 3.48485C72.4067 2.95912 71.3221 2.75304 70.1827 2.48303L68.3408 2.37172C67.9677 2.21302 67.5796 1.75499 67.2276 1.53462C65.8295 0.650134 62.2419 -1.27076 61.2047 1.25559C60.5526 2.85082 62.1832 4.40769 62.7676 5.21621C63.176 5.7833 63.7017 6.41808 63.9928 7.05512C64.1868 7.47254 64.2192 7.89222 64.3839 8.33597C64.7893 9.42879 65.142 10.6156 65.6678 11.6265C65.9325 12.1379 66.2228 12.6757 66.5583 13.1307C66.7636 13.4097 67.1163 13.5361 67.172 13.9678C66.8283 14.4499 66.808 15.196 66.6139 15.8067C65.7415 18.5534 66.0701 21.9673 67.3397 24.0032C67.7278 24.626 68.6439 25.9655 69.9044 25.4518C71.0063 25.002 70.7596 23.6129 71.0739 22.3847C71.1476 22.1087 71.1033 21.9026 71.2417 21.7176V21.7732L72.2465 23.7798C72.9896 24.9757 74.3058 26.2242 75.4227 27.0673C76.004 27.5051 76.4598 28.2632 77.2089 28.5189V28.4602H77.1533C77.0066 28.2369 76.7802 28.1428 76.5952 27.9608C76.1575 27.5321 75.6724 27.0004 75.3144 26.5093C74.2975 25.1314 73.3987 23.6211 72.5819 22.0492C72.1908 21.3001 71.8501 20.4713 71.5214 19.7079C71.3951 19.4138 71.3981 18.9678 71.1334 18.8174C70.7723 19.3755 70.2406 19.8282 69.9608 20.4894C69.5141 21.5438 69.4584 22.8337 69.2907 24.1679L69.1794 24.2236C68.4039 24.0356 68.1302 23.2368 67.8429 22.5516C67.1111 20.818 66.9764 18.0239 67.6195 16.0293C67.7842 15.5126 68.5363 13.8843 68.231 13.409C68.0873 12.9329 67.6082 12.6569 67.3405 12.2928C66.9904 11.8047 66.6913 11.282 66.4477 10.733C65.8513 9.3784 65.5722 7.86289 64.9435 6.4963C64.6441 5.84121 64.1357 5.18011 63.7183 4.59872C63.2542 3.95567 62.7368 3.48259 62.3788 2.7034C62.2524 2.42738 62.0794 1.98363 62.2675 1.69858C62.3261 1.50754 62.4141 1.42857 62.6021 1.3669C62.9256 1.1172 63.8273 1.44888 64.162 1.58727C65.0578 1.96031 65.8046 2.31305 66.562 2.81546C66.923 3.05614 67.2908 3.5232 67.7316 3.65257H68.234C69.0184 3.83157 69.8969 3.70522 70.6317 3.92859C71.9276 4.32195 73.0911 4.93642 74.1426 5.60355C77.3563 7.63049 79.9835 10.5186 81.781 13.9648C82.0721 14.5198 82.1954 15.0486 82.4511 15.6367C82.9656 16.8236 83.6117 18.0457 84.1231 19.2063C84.6345 20.3668 85.1309 21.5333 85.8507 22.4967C86.2298 23.0022 87.6956 23.2722 88.3597 23.5542C88.8268 23.7513 89.591 23.9566 90.0317 24.2243C90.8778 24.7328 91.6946 25.3375 92.4881 25.8963C92.8814 26.1783 94.0984 26.7898 94.16 27.2915L94.1563 27.2922ZM69.2335 6.05105C68.8962 6.04529 68.5595 6.0827 68.2317 6.16236V6.21802H68.2874C68.4814 6.6204 68.8251 6.87913 69.0658 7.22284L69.6239 8.39238L69.6795 8.33973C70.0263 8.09605 70.1819 7.70495 70.1819 7.11153C70.0413 6.96487 70.0232 6.78286 69.9029 6.60912C69.7442 6.37672 69.4366 6.24811 69.2335 6.05105Z" fill="#00618A"/>
</g>
</svg>
