<svg width="51" height="50" viewBox="0 0 51 50" fill="none" xmlns="http://www.w3.org/2000/svg">
<path d="M25.3274 46.875C24.7372 46.8752 24.1573 46.72 23.6462 46.425L18.2962 43.2578C17.4977 42.8109 17.8868 42.6531 18.1508 42.5609C19 42.2986 19.8131 41.9312 20.5712 41.4672C20.6346 41.4378 20.7045 41.4252 20.7742 41.4303C20.8439 41.4355 20.9112 41.4584 20.9696 41.4969L25.0805 43.9391C25.1571 43.9796 25.2424 44.0007 25.329 44.0007C25.4156 44.0007 25.5009 43.9796 25.5774 43.9391L41.6087 34.6859C41.6837 34.641 41.7457 34.5773 41.7887 34.5012C41.8317 34.425 41.8542 34.339 41.854 34.2516V15.7422C41.854 15.6533 41.8312 15.566 41.7877 15.4885C41.7442 15.4111 41.6814 15.3462 41.6055 15.3L25.5743 6.05469C25.4987 6.01211 25.4134 5.98974 25.3266 5.98974C25.2399 5.98974 25.1546 6.01211 25.079 6.05469L9.05709 15.3031C8.98067 15.3483 8.91721 15.4125 8.87286 15.4894C8.82852 15.5663 8.80479 15.6534 8.80397 15.7422V34.2437C8.80419 34.331 8.8276 34.4166 8.8718 34.4919C8.916 34.5671 8.97941 34.6292 9.05553 34.6719L13.4524 37.2094C15.8352 38.4 17.2946 36.9969 17.2946 35.5875V17.3203C17.2946 17.196 17.344 17.0768 17.4319 16.9889C17.5198 16.9009 17.639 16.8516 17.7633 16.8516H19.7946C19.9189 16.8516 20.0381 16.9009 20.126 16.9889C20.214 17.0768 20.2633 17.196 20.2633 17.3203V35.5891C20.2633 38.7687 18.5321 40.5891 15.5165 40.5891C14.2155 40.6117 12.9349 40.2638 11.8243 39.5859L7.61022 37.1687C7.09863 36.8708 6.67415 36.4439 6.37913 35.9307C6.08412 35.4174 5.9289 34.8358 5.92897 34.2437V15.7422C5.92745 15.1493 6.08201 14.5664 6.37713 14.0521C6.67225 13.5379 7.09752 13.1103 7.61022 12.8125L23.643 3.55625C24.1595 3.2737 24.7387 3.12561 25.3274 3.12561C25.9161 3.12561 26.4953 3.2737 27.0118 3.55625L43.043 12.8125C43.5545 13.1098 43.9791 13.5361 44.2744 14.0488C44.5697 14.5615 44.7254 15.1427 44.7258 15.7344V34.2437C44.725 34.8357 44.5692 35.4172 44.274 35.9303C43.9787 36.4435 43.5544 36.8704 43.043 37.1687L27.0118 46.425C26.4996 46.7205 25.9187 46.8757 25.3274 46.875Z" fill="#83CD29"/>
<path d="M22.2867 28.0516C22.2867 27.9272 22.3361 27.808 22.424 27.7201C22.5119 27.6322 22.6312 27.5828 22.7555 27.5828H24.8289C24.9397 27.5832 25.0468 27.6228 25.1312 27.6946C25.2156 27.7663 25.2718 27.8657 25.2899 27.975C25.6024 30.0859 26.5399 31.15 30.7789 31.15C34.1555 31.15 35.5946 30.3859 35.5946 28.5937C35.5946 27.5609 35.1867 26.7938 29.9383 26.2797C25.5508 25.8453 22.8383 24.8734 22.8383 21.3672C22.8383 18.1328 25.5649 16.2031 30.1352 16.2031C35.2711 16.2031 37.8133 17.9859 38.1352 21.8109C38.1401 21.8748 38.1319 21.939 38.111 21.9995C38.0902 22.0601 38.0571 22.1157 38.0139 22.163C37.9707 22.2103 37.9183 22.2483 37.8599 22.2745C37.8015 22.3008 37.7383 22.3147 37.6742 22.3156H35.5867C35.482 22.3142 35.3808 22.2777 35.2992 22.212C35.2177 22.1463 35.1605 22.0551 35.1367 21.9531C34.6383 19.7328 33.418 19.0234 30.1367 19.0234C26.4492 19.0234 26.0211 20.3078 26.0211 21.2703C26.0211 22.4359 26.5274 22.7766 31.5055 23.4344C36.4321 24.0859 38.7727 25.0078 38.7727 28.4703C38.7727 31.9641 35.8602 33.9641 30.7805 33.9641C23.7571 33.9734 22.2867 30.7531 22.2867 28.0516Z" fill="#83CD29"/>
</svg>
