<svg width="96" height="50" viewBox="0 0 96 50" fill="none" xmlns="http://www.w3.org/2000/svg">
<g id="Group 4">
<path id="Vector" d="M48.004 50C74.2642 50 95.5523 38.8071 95.5523 25C95.5523 11.1929 74.2642 0 48.004 0C21.7438 0 0.455688 11.1929 0.455688 25C0.455688 38.8071 21.7438 50 48.004 50Z" fill="url(#paint0_radial_60_102)"/>
<path id="Vector_2" d="M48.004 48.1426C73.2384 48.1426 93.6949 37.7813 93.6949 25C93.6949 12.2187 73.2384 1.85736 48.004 1.85736C22.7696 1.85736 2.31305 12.2187 2.31305 25C2.31305 37.7813 22.7696 48.1426 48.004 48.1426Z" fill="#6181B6"/>
<path id="Vector_3" d="M57.2536 32.5037L59.5196 20.8395C60.0396 18.2021 59.5939 16.2333 58.2566 15.0074C56.9564 13.8187 54.7276 13.2244 51.4586 13.2244H47.5211L48.6355 7.42942C48.6726 7.20654 48.6355 6.98366 48.4869 6.79792C48.3383 6.61219 48.1526 6.53789 47.9297 6.53789H42.5062C42.1347 6.53789 41.8375 6.79792 41.7633 7.13225L39.3487 19.5022C39.1258 18.0906 38.6058 16.9019 37.7142 15.9361C36.1169 14.1159 33.628 13.1872 30.2477 13.1872H19.8093C19.4378 13.1872 19.1407 13.4473 19.0664 13.7816L14.2001 38.893C14.163 39.1159 14.2001 39.3388 14.3487 39.5245C14.4973 39.7103 14.683 39.7845 14.9059 39.7845H20.3665C20.738 39.7845 21.0352 39.5245 21.1095 39.1902L22.2982 33.1352H26.3472C28.4646 33.1352 30.2848 32.9123 31.6592 32.4666C33.108 31.9837 34.4081 31.2036 35.5597 30.1263C36.4884 29.2719 37.2685 28.3061 37.8628 27.266L36.897 32.2808C36.8598 32.5037 36.897 32.7266 37.0456 32.9123C37.1942 33.0981 37.3799 33.1724 37.6028 33.1724H43.0263C43.3977 33.1724 43.6949 32.9123 43.7692 32.578L46.4438 18.8336H50.1585C51.7558 18.8336 52.2016 19.1308 52.3502 19.2793C52.4616 19.3908 52.6845 19.8366 52.4245 21.211L50.2699 32.318C50.2328 32.5409 50.2699 32.7637 50.4185 32.9495C50.5671 33.1352 50.7528 33.2095 50.9757 33.2095H56.5478C56.8821 33.0981 57.1793 32.838 57.2536 32.5037ZM32.1422 22.8455C31.8078 24.5914 31.1763 25.8544 30.2477 26.5602C29.319 27.266 27.7959 27.6374 25.79 27.6374H23.3754L25.1214 18.6478H28.2417C30.5448 18.6478 31.4735 19.1308 31.845 19.5394C32.3279 20.1337 32.4393 21.2853 32.1422 22.8455ZM80.4334 15.9361C78.8361 14.1159 76.3472 13.1872 72.9668 13.1872H62.4542C62.0827 13.1872 61.7855 13.4473 61.7112 13.7816L56.845 38.8559C56.8078 39.0788 56.845 39.3016 56.9936 39.4874C57.1422 39.6731 57.3279 39.7474 57.5508 39.7474H63.0114C63.3829 39.7474 63.68 39.4874 63.7543 39.153L64.9431 33.0981H68.9921C71.1095 33.0981 72.9297 32.8752 74.3041 32.4294C75.7529 31.9465 77.053 31.1664 78.2046 30.0892C79.1704 29.1976 79.9876 28.1947 80.582 27.1174C81.1763 26.0401 81.6221 24.8514 81.8821 23.5513C82.5136 20.3195 82.0307 17.7935 80.4334 15.9361ZM74.7499 22.8455C74.4156 24.5914 73.7841 25.8544 72.8554 26.5602C71.9267 27.266 70.4037 27.6374 68.3977 27.6374H65.9832L67.7291 18.6478H70.8494C73.1526 18.6478 74.0812 19.1308 74.4527 19.5394C74.9728 20.1337 75.0842 21.2853 74.7499 22.8455Z" fill="white"/>
<path id="Vector_4" d="M28.2417 17.9049C30.322 17.9049 31.6964 18.2764 32.4022 19.0565C33.108 19.8366 33.2566 21.1367 32.8851 22.9941C32.5136 24.9257 31.7707 26.3373 30.6934 27.1545C29.6162 27.9718 27.9817 28.3804 25.79 28.3804H22.4839L24.527 17.9049H28.2417ZM14.9431 39.0045H20.4037L21.7038 32.3551H26.3844C28.4646 32.3551 30.1362 32.1322 31.4735 31.6865C32.8108 31.2407 33.9995 30.5349 35.1139 29.4948C36.0426 28.6404 36.7856 27.7117 37.3428 26.7088C37.9 25.7058 38.3086 24.5914 38.5315 23.3655C39.1258 20.3938 38.6801 18.0906 37.2313 16.419C35.7826 14.7474 33.4795 13.9302 30.322 13.9302H19.8093L14.9431 39.0045ZM42.5434 7.28083H47.9668L46.6667 13.9302H51.4958C54.5419 13.9302 56.6221 14.4502 57.7737 15.5275C58.9252 16.6048 59.2595 18.3135 58.8138 20.6909L56.5478 32.3551H51.05L53.2046 21.2481C53.4646 19.9851 53.3532 19.1308 52.9445 18.685C52.5359 18.2392 51.6072 17.9792 50.2328 17.9792H45.8866L43.1006 32.3551H37.6771L42.5434 7.28083ZM70.8494 17.9049C72.9297 17.9049 74.3041 18.2764 75.0099 19.0565C75.7157 19.8366 75.8643 21.1367 75.4928 22.9941C75.1214 24.9257 74.3784 26.3373 73.3012 27.1545C72.2239 27.9718 70.5894 28.3804 68.3977 28.3804H65.0916L67.1347 17.9049H70.8494ZM57.5508 39.0045H63.0114L64.3116 32.3551H68.9921C71.0723 32.3551 72.7439 32.1322 74.0812 31.6865C75.4185 31.2407 76.6072 30.5349 77.7217 29.4948C78.6503 28.6404 79.3933 27.7117 79.9505 26.7088C80.5077 25.7058 80.9163 24.5914 81.1392 23.3655C81.7335 20.3938 81.2878 18.0906 79.839 16.419C78.3903 14.7474 76.0872 13.9302 72.9297 13.9302H62.4171L57.5508 39.0045Z" fill="#000004"/>
</g>
<defs>
<radialGradient id="paint0_radial_60_102" cx="0" cy="0" r="1" gradientUnits="userSpaceOnUse" gradientTransform="translate(29.0038 8.79179) scale(62.4426)">
<stop stop-color="white"/>
<stop offset="0.5" stop-color="#4C6B97"/>
<stop offset="1" stop-color="#231F20"/>
</radialGradient>
</defs>
</svg>
