<svg width="51" height="46" viewBox="0 0 51 46" fill="none" xmlns="http://www.w3.org/2000/svg">
<path id="Vector" d="M41.6147 15.2022C41.0826 15.0203 40.546 14.8517 40.0053 14.6967C40.0962 14.3268 40.1798 13.9615 40.254 13.6025C41.4723 7.70818 40.6759 2.95958 37.9553 1.39611C35.3469 -0.102736 31.0811 1.46015 26.7729 5.19694C26.3483 5.56588 25.9332 5.94544 25.5278 6.33528C25.2564 6.07605 24.9803 5.82185 24.6995 5.57282C20.1843 1.57733 15.6585 -0.106629 12.9409 1.46132C10.3348 2.96483 9.56316 7.42885 10.66 13.0151C10.7692 13.5683 10.8924 14.1187 11.0296 14.6657C10.3889 14.8472 9.77078 15.0402 9.17917 15.2458C3.88542 17.0853 0.504761 19.9679 0.504761 22.958C0.504761 26.0462 4.13406 29.1438 9.64773 31.022C10.0947 31.1737 10.5455 31.3142 10.9995 31.4434C10.852 32.0326 10.7211 32.6257 10.6069 33.2222C9.56121 38.7115 10.3778 43.07 12.9768 44.564C15.6612 46.1068 20.1667 44.5211 24.5536 40.6991C24.9093 40.3884 25.2572 40.0688 25.5969 39.7408C26.0359 40.1629 26.4866 40.5728 26.9485 40.9698C31.1981 44.6142 35.395 46.0858 37.9915 44.5877C40.6733 43.0404 41.545 38.3582 40.4134 32.6616C40.3242 32.2153 40.2242 31.7712 40.1135 31.3298C40.43 31.2363 40.7405 31.1402 41.0432 31.0401C46.7753 29.1475 50.5048 26.0875 50.5048 22.958C50.5048 19.957 47.0149 17.0549 41.6147 15.2022ZM40.3716 29.0196C40.0981 29.1097 39.8176 29.1967 39.5317 29.2814C38.8989 27.2848 38.045 25.1619 36.9999 22.9684C37.9971 20.8271 38.8182 18.7313 39.4333 16.7478C39.9448 16.8953 40.4411 17.0508 40.9196 17.2149C45.5466 18.8025 48.3688 21.1495 48.3688 22.958C48.3688 24.8843 45.3208 27.3851 40.3716 29.0196ZM38.318 33.075C38.8184 35.5939 38.8897 37.8713 38.5583 39.6518C38.2606 41.2517 37.6618 42.3182 36.9212 42.7455C35.3456 43.6545 31.9759 42.473 28.3417 39.3562C27.9121 38.987 27.4928 38.6059 27.0844 38.2135C28.4934 36.6779 29.9014 34.8927 31.2757 32.91C33.6928 32.6962 35.9764 32.3466 38.0473 31.8695C38.1471 32.2692 38.2374 32.6711 38.318 33.075ZM17.5509 42.5884C16.0114 43.1301 14.7852 43.1457 14.044 42.7198C12.4669 41.8133 11.8112 38.3136 12.7055 33.6193C12.8119 33.0646 12.9336 32.5129 13.0706 31.9649C15.1186 32.4165 17.3856 32.7412 19.8085 32.937C21.1921 34.8771 22.6407 36.6604 24.1007 38.2219C23.7904 38.5211 23.4728 38.8127 23.1481 39.0963C21.2081 40.7863 19.2641 41.9854 17.5509 42.5884ZM10.3387 29.0077C7.90066 28.1771 5.88718 27.0978 4.5071 25.9199C3.26687 24.8616 2.64089 23.8106 2.64089 22.958C2.64089 21.1435 5.35515 18.829 9.8823 17.256C10.4317 17.0652 11.0067 16.8852 11.6034 16.7162C12.2292 18.7445 13.0499 20.8653 14.0403 23.0098C13.037 25.1861 12.2046 27.3407 11.5727 29.3929C11.1583 29.2746 10.7468 29.1462 10.3387 29.0077ZM12.7563 12.6061C11.8167 7.82011 12.4407 4.20984 14.0112 3.30373C15.6839 2.33863 19.3827 3.71464 23.2813 7.16471C23.5355 7.39019 23.7857 7.62025 24.0315 7.85476C22.5788 9.40947 21.1434 11.1795 19.7721 13.1081C17.4206 13.3253 15.1696 13.6742 13.1001 14.1415C12.9726 13.6327 12.8579 13.1206 12.7563 12.6061ZM34.3241 17.9139C33.8353 17.0724 33.3283 16.2415 32.8036 15.4218C34.3989 15.6229 35.9274 15.8897 37.3628 16.216C36.9319 17.5926 36.3948 19.0317 35.7626 20.5071C35.3004 19.6333 34.8209 18.7687 34.3241 17.9139ZM25.5288 9.37618C26.5139 10.44 27.5007 11.6276 28.4712 12.9162C26.5024 12.8235 24.5304 12.8231 22.5616 12.915C23.5331 11.6383 24.5282 10.4522 25.5288 9.37618ZM16.677 17.9285C16.1865 18.7764 15.7158 19.6356 15.2655 20.5054C14.6436 19.0352 14.1114 17.5895 13.6768 16.1934C15.1034 15.8753 16.6247 15.6153 18.2098 15.4179C17.6793 16.2426 17.1682 17.0799 16.677 17.9285ZM18.2553 30.6496C16.6177 30.4674 15.0735 30.2208 13.6473 29.9113C14.0887 28.4903 14.6327 27.0139 15.268 25.5121C15.7202 26.3825 16.1927 27.2422 16.6854 28.0905C17.1921 28.9626 17.7167 29.8167 18.2553 30.6496ZM25.5878 36.6898C24.5753 35.6013 23.5655 34.3969 22.5794 33.1017C23.5368 33.1391 24.5128 33.1581 25.5048 33.1581C26.5239 33.1581 27.5313 33.1354 28.5229 33.0914C27.5493 34.41 26.5663 35.6161 25.5878 36.6898ZM35.7827 25.4354C36.451 26.9537 37.0143 28.4224 37.4616 29.819C36.012 30.1488 34.4468 30.4143 32.7975 30.6115C33.326 29.7765 33.8378 28.9312 34.3325 28.0759C34.8355 27.2066 35.319 26.3262 35.7827 25.4354ZM32.4823 27.0123C31.7249 28.3236 30.9249 29.61 30.0837 30.8694C28.5598 30.977 27.0325 31.0304 25.5048 31.0296C23.9487 31.0296 22.4352 30.9813 20.9778 30.8871C20.1146 29.6306 19.2993 28.3419 18.5339 27.024C17.772 25.713 17.0605 24.3737 16.4007 23.0088C17.0589 21.6437 17.7683 20.3037 18.5276 18.9917L18.5274 18.9919C19.2864 17.6796 20.0951 16.3965 20.9518 15.1454C22.4387 15.0332 23.9636 14.9748 25.5046 14.9748C27.0526 14.9748 28.5796 15.0338 30.0661 15.1467C30.9142 16.396 31.7177 17.6747 32.4753 18.9805C33.2371 20.2895 33.9559 21.623 34.6307 22.9787C33.9629 24.3482 33.2463 25.6936 32.4823 27.0123ZM36.8885 3.24027C38.5628 4.20264 39.2139 8.08348 38.162 13.1727C38.0948 13.4974 38.0194 13.8281 37.9374 14.1635C35.8628 13.6862 33.6102 13.3314 31.2518 13.1108C29.878 11.161 28.4544 9.38825 27.0253 7.85359C27.3998 7.49377 27.7833 7.14329 28.1753 6.80245C31.8667 3.60096 35.3167 2.33687 36.8885 3.24027ZM25.5048 18.5082C27.9706 18.5082 29.9696 20.5005 29.9696 22.958C29.9696 25.4156 27.9706 27.4078 25.5048 27.4078C23.0389 27.4078 21.0399 25.4156 21.0399 22.958C21.0399 20.5005 23.0389 18.5082 25.5048 18.5082Z" fill="#00D8FF"/>
</svg>
