<svg width="51" height="30" viewBox="0 0 51 30" fill="none" xmlns="http://www.w3.org/2000/svg">
<path id="Vector" d="M25.6821 0.0585938C19.0155 0.0585938 14.8487 3.37897 13.1821 10.0195C15.6821 6.69915 18.5987 5.45404 21.9321 6.28418C23.8339 6.75771 25.1933 8.13221 26.698 9.65339C29.1491 12.1318 31.9858 15 38.1821 15C44.8487 15 49.0155 11.6796 50.6821 5.03906C48.1821 8.35944 45.2655 9.60456 41.9321 8.77441C40.0304 8.30088 38.671 6.92639 37.1663 5.4052C34.7151 2.92684 31.8784 0.0585938 25.6821 0.0585938ZM13.1821 15C6.51553 15 2.34873 18.3204 0.682129 24.9609C3.18213 21.6406 6.09873 20.3954 9.43213 21.2256C11.3339 21.6991 12.6933 23.0736 14.1979 24.5948C16.6491 27.0732 19.4858 29.9414 25.6821 29.9414C32.3487 29.9414 36.5155 26.621 38.1821 19.9805C35.6821 23.3008 32.7655 24.546 29.4321 23.7158C27.5304 23.2423 26.171 21.8678 24.6663 20.3466C22.2151 17.8682 19.3784 15 13.1821 15Z" fill="url(#paint0_linear_60_64)"/>
<defs>
<linearGradient id="paint0_linear_60_64" x1="-138.218" y1="956.309" x2="4171.65" y2="3451.05" gradientUnits="userSpaceOnUse">
<stop stop-color="#2298BD"/>
<stop offset="1" stop-color="#0ED7B5"/>
</linearGradient>
</defs>
</svg>
